<?xml version="1.0" standalone="no"?>
<!DOCTYPE svg PUBLIC "-//W3C//DTD SVG 20010904//EN"
 "http://www.w3.org/TR/2001/REC-SVG-20010904/DTD/svg10.dtd">
<svg version="1.0" xmlns="http://www.w3.org/2000/svg"
 width="1008.000000pt" height="1008.000000pt" viewBox="0 0 1008.000000 1008.000000"
 preserveAspectRatio="xMidYMid meet">
<metadata>
Created by potrace 1.14, written by Peter Selinger 2001-2017
</metadata>
<g transform="translate(0.000000,1008.000000) scale(0.100000,-0.100000)"
fill="#000000" stroke="none">
<path d="M4738 9955 c-1 -2 -43 -6 -93 -9 -130 -8 -250 -20 -300 -30 -11 -2
-45 -7 -76 -10 -31 -4 -67 -9 -80 -12 -13 -2 -38 -6 -55 -8 -17 -2 -35 -5 -40
-8 -5 -3 -31 -9 -59 -13 -27 -5 -54 -9 -60 -11 -23 -5 -62 -13 -90 -19 -16 -3
-41 -8 -55 -12 -14 -3 -29 -7 -35 -8 -56 -13 -361 -102 -390 -115 -11 -4 -90
-34 -175 -65 -151 -56 -196 -75 -330 -138 -141 -66 -341 -168 -350 -178 -3 -3
-12 -9 -20 -13 -8 -4 -24 -12 -35 -19 -11 -7 -43 -25 -70 -41 -68 -40 -249
-158 -255 -166 -3 -4 -16 -13 -29 -19 -41 -22 -323 -239 -329 -253 -2 -5 -11
-8 -20 -8 -8 0 -12 -3 -9 -7 4 -3 -6 -16 -22 -27 -104 -77 -420 -387 -536
-527 -11 -13 -46 -55 -79 -94 -87 -105 -90 -108 -107 -135 -10 -14 -26 -35
-38 -47 -12 -12 -21 -25 -21 -27 0 -5 -46 -68 -83 -116 -7 -8 -32 -47 -57 -85
-24 -39 -47 -72 -50 -75 -3 -3 -11 -16 -19 -30 -8 -14 -41 -68 -73 -120 -32
-52 -58 -101 -58 -107 0 -7 -4 -13 -8 -13 -9 0 -33 -44 -38 -69 -1 -8 -6 -17
-11 -20 -11 -8 -103 -194 -103 -209 0 -7 -4 -12 -10 -12 -5 0 -10 -8 -10 -18
0 -10 -4 -22 -9 -28 -13 -13 -74 -164 -71 -173 1 -2 -3 -7 -10 -11 -6 -4 -12
-17 -13 -28 -1 -12 -5 -22 -10 -22 -4 0 -5 -4 -2 -10 3 -5 2 -10 -3 -10 -5 0
-9 -6 -9 -12 -1 -7 -15 -51 -33 -98 -26 -72 -68 -198 -100 -302 -4 -14 -6 -29
-2 -32 3 -3 1 -6 -5 -6 -6 0 -13 -12 -16 -27 -3 -16 -7 -37 -10 -48 -3 -11
-10 -40 -16 -65 -11 -42 -14 -58 -26 -112 -2 -13 -11 -50 -19 -83 -15 -62 -15
-63 -17 -67 0 -2 -2 -19 -4 -38 -2 -19 -5 -44 -8 -55 -7 -32 -16 -86 -23 -140
-3 -27 -8 -53 -10 -56 -2 -3 -6 -39 -9 -80 -3 -41 -8 -86 -10 -100 -26 -151
-26 -772 0 -984 2 -22 7 -62 10 -90 12 -120 17 -152 25 -190 5 -22 11 -60 15
-85 6 -41 30 -166 42 -215 2 -11 6 -29 8 -40 1 -11 8 -40 15 -65 7 -25 14 -53
15 -62 2 -10 6 -22 9 -26 3 -5 7 -21 10 -37 10 -55 74 -257 134 -420 75 -204
195 -467 301 -660 19 -33 41 -73 50 -90 9 -16 18 -32 21 -35 3 -3 14 -21 24
-40 26 -48 200 -313 250 -380 23 -30 44 -59 48 -65 4 -5 21 -26 38 -46 16 -20
30 -42 30 -48 0 -6 5 -11 10 -11 6 0 10 24 11 53 1 50 4 104 12 212 2 28 6 55
9 60 2 6 4 22 3 37 -1 16 1 28 5 28 4 0 6 10 5 22 -1 19 11 94 26 153 1 3 2
13 3 23 1 9 5 23 9 30 5 6 6 12 3 12 -13 0 85 321 137 447 14 34 22 64 19 67
-3 3 0 6 6 6 7 0 12 9 12 20 0 11 5 20 12 20 6 0 9 3 5 6 -9 9 150 316 216
418 31 48 57 90 57 94 0 4 10 18 23 32 12 14 35 45 51 70 16 24 40 56 53 69
12 14 23 29 23 33 0 5 8 16 18 26 9 10 26 30 37 46 11 15 29 38 40 50 11 13
45 52 75 87 117 137 380 390 550 530 36 30 67 56 70 59 3 3 25 21 50 40 25 19
47 38 48 42 2 4 8 8 13 8 8 0 80 51 99 70 8 8 64 47 182 125 62 41 118 79 125
85 7 5 17 10 23 10 5 0 10 5 10 10 0 6 4 10 8 10 4 0 72 38 150 85 79 47 144
85 147 85 2 0 27 13 55 30 27 16 50 26 50 22 0 -4 4 -2 8 4 6 10 282 148 375
188 20 9 54 24 75 33 36 16 107 24 127 14 29 -15 570 -16 570 -1 0 1 23 3 50
5 44 2 89 8 160 20 11 2 40 7 65 10 64 9 85 24 35 26 -22 0 -53 2 -70 3 -16 2
-52 5 -80 6 -27 2 -54 5 -58 7 -4 3 -36 7 -70 9 -34 2 -75 6 -92 9 -16 2 -59
7 -95 10 -36 4 -68 9 -71 11 -3 2 -33 6 -65 10 -32 3 -61 7 -64 9 -3 2 -24 6
-47 10 -83 12 -99 15 -197 35 -54 11 -101 22 -105 25 -4 2 -23 7 -42 10 -19 3
-59 13 -89 22 -30 9 -64 17 -75 19 -11 1 -33 8 -50 15 -16 6 -39 14 -50 16
-11 2 -45 13 -75 24 -30 12 -80 31 -110 42 -85 32 -238 114 -305 162 -59 42
-125 106 -125 121 0 4 -6 12 -14 18 -24 19 -44 97 -40 156 6 76 6 80 14 80 4
0 13 13 19 28 15 36 81 105 152 156 48 36 238 137 294 156 11 4 36 14 55 22
32 14 230 77 247 79 5 1 19 6 33 11 14 5 36 12 50 14 14 3 50 11 80 19 54 14
227 50 285 59 17 3 41 7 55 10 14 3 48 8 76 11 80 9 109 19 112 41 2 10 6 26
9 34 3 8 8 23 10 33 14 75 123 283 191 367 65 79 76 92 121 134 62 58 62 58
106 90 22 17 42 32 45 35 3 4 21 14 40 25 19 10 54 29 78 43 46 26 203 89 243
97 13 3 35 8 49 11 69 15 174 26 255 25 134 -1 170 -5 313 -40 43 -10 222 -80
232 -90 3 -3 25 -16 50 -29 47 -25 119 -78 132 -96 4 -5 8 -6 8 -2 0 9 97 -79
134 -122 12 -13 26 -29 31 -35 6 -6 24 -29 40 -51 17 -22 32 -42 36 -45 13
-12 89 -153 89 -166 0 -8 5 -14 11 -14 6 0 9 -6 7 -12 -5 -14 -27 -18 -43 -9
-5 3 -23 7 -40 8 -16 0 -30 2 -30 3 0 1 -13 4 -30 5 -16 2 -50 7 -75 10 -25 4
-66 7 -92 8 -25 1 -50 5 -53 9 -4 4 -15 4 -24 -1 -17 -8 -101 -7 -126 3 -8 3
-15 2 -15 -2 0 -4 -32 -7 -71 -7 -39 0 -72 -2 -74 -5 -2 -3 -24 -5 -49 -5 -25
1 -46 -2 -46 -5 0 -3 -15 -6 -32 -6 -18 -1 -44 -4 -58 -7 -14 -3 -36 -8 -50
-11 -14 -3 -38 -9 -55 -13 -16 -4 -36 -6 -42 -4 -7 1 -13 -3 -13 -9 0 -5 -3
-9 -7 -8 -10 2 -75 -13 -88 -20 -5 -4 -14 -7 -20 -8 -14 -2 -145 -62 -145 -66
0 -2 91 -4 203 -5 334 -1 690 -20 942 -50 28 -3 64 -7 80 -8 17 -2 45 -6 64
-9 19 -4 54 -9 77 -11 23 -1 55 -6 71 -9 16 -4 44 -9 63 -11 48 -6 92 -14 175
-31 39 -8 82 -17 97 -19 43 -6 265 -64 353 -91 102 -33 286 -103 303 -116 6
-6 12 -8 12 -5 0 5 29 -10 164 -87 40 -23 136 -111 172 -158 41 -53 63 -179
38 -219 -5 -8 -9 -20 -10 -26 -4 -27 -115 -153 -134 -153 -6 0 -10 -4 -10 -8
0 -4 -22 -21 -50 -37 -27 -17 -50 -33 -50 -36 0 -4 -12 -10 -27 -14 -15 -3
-30 -10 -33 -14 -5 -8 -202 -94 -245 -107 -5 -2 -37 -13 -70 -24 -33 -11 -67
-22 -75 -23 -8 -1 -19 -5 -25 -8 -9 -6 -31 -12 -90 -26 -40 -9 -50 -12 -50
-13 0 -1 -11 -4 -25 -6 -14 -3 -43 -10 -65 -16 -22 -6 -47 -12 -55 -13 -8 -1
-64 -12 -125 -24 -60 -13 -121 -24 -135 -26 -22 -3 -119 -18 -190 -30 -22 -4
-68 -9 -165 -20 -16 -2 -59 -7 -95 -10 -36 -4 -78 -8 -95 -10 -32 -3 -169 -14
-270 -21 -33 -2 -159 -6 -280 -9 -121 -2 -222 -5 -225 -6 -3 -1 -8 -1 -13 0
-4 1 -80 3 -170 5 l-162 5 -140 -86 c-138 -85 -285 -181 -295 -192 -3 -3 -32
-24 -65 -46 -57 -38 -214 -154 -225 -165 -3 -3 -21 -17 -40 -30 -19 -13 -39
-29 -45 -35 -5 -6 -39 -36 -75 -66 -105 -88 -127 -108 -254 -234 -132 -130
-191 -195 -281 -310 -22 -27 -43 -51 -47 -53 -5 -2 -8 -10 -8 -18 0 -8 -4 -14
-10 -14 -5 0 -10 -5 -10 -11 0 -10 -13 -29 -60 -86 -6 -7 -10 -15 -10 -17 0
-3 -16 -30 -35 -60 -40 -63 -146 -268 -149 -289 -1 -8 -8 -23 -16 -33 -8 -9
-13 -19 -11 -21 3 -3 -10 -43 -36 -113 -3 -8 -7 -20 -8 -25 -2 -6 -12 -44 -23
-85 -18 -68 -29 -117 -37 -177 -2 -12 -6 -34 -9 -50 -21 -98 -22 -464 -2 -570
3 -12 8 -53 11 -90 4 -37 9 -71 11 -74 2 -3 6 -21 9 -40 3 -19 10 -53 15 -76
6 -24 15 -64 21 -90 26 -112 135 -403 160 -427 5 -6 9 -18 9 -28 0 -10 3 -18
8 -18 4 0 14 -14 21 -32 8 -18 27 -51 43 -74 15 -23 28 -45 28 -48 0 -7 36
-60 55 -82 6 -6 17 -22 25 -34 8 -12 22 -30 30 -40 8 -11 26 -33 40 -51 34
-45 143 -160 214 -228 32 -31 74 -71 93 -89 18 -18 33 -30 33 -28 0 3 15 -10
33 -27 27 -28 78 -71 160 -137 11 -8 24 -20 31 -26 18 -16 195 -143 227 -161
16 -10 29 -21 29 -25 0 -4 5 -8 11 -8 7 0 35 -15 63 -33 81 -51 83 -52 246
-135 85 -44 166 -83 180 -87 14 -4 43 -16 65 -25 34 -16 129 -51 215 -80 64
-22 263 -81 340 -100 47 -12 92 -24 100 -27 8 -3 21 -7 29 -9 8 -1 26 -6 40
-10 14 -4 29 -8 34 -9 4 -2 8 -3 10 -5 2 -2 33 -10 57 -14 14 -3 24 -6 70 -23
8 -4 20 -7 25 -8 6 -1 12 -3 15 -4 3 -1 36 -12 75 -25 l69 -24 66 20 c36 11
70 21 75 23 6 1 17 5 25 8 39 15 258 90 278 94 12 3 22 9 22 14 0 5 3 8 8 7 8
-3 102 32 118 44 6 4 14 5 17 1 4 -3 7 -1 7 5 0 7 8 12 18 12 10 0 23 5 29 11
6 6 17 11 24 13 8 1 33 12 55 24 23 11 44 18 48 15 3 -4 6 -1 6 5 0 7 9 12 19
12 11 0 21 3 23 8 2 4 57 34 123 67 66 33 122 63 125 66 3 3 12 9 20 12 20 9
172 101 264 160 66 42 222 152 224 159 2 4 8 8 13 8 9 0 228 170 265 204 6 6
35 31 65 56 139 118 376 355 499 500 25 29 50 58 55 64 34 36 135 167 135 175
0 5 4 11 9 13 4 2 36 41 70 88 33 47 68 95 77 107 54 75 224 355 224 370 0 6
4 13 9 15 20 7 284 564 295 621 1 7 10 29 19 51 9 21 17 43 17 48 0 6 6 24 14
41 12 27 31 88 84 262 3 11 7 25 8 30 2 6 10 35 19 65 20 71 63 256 71 305 6
37 9 54 19 97 3 13 8 43 10 68 2 25 4 45 5 45 2 0 9 37 14 75 3 19 5 35 6 35
0 0 3 23 5 50 3 28 7 70 10 95 9 69 17 196 18 288 1 45 4 82 7 82 3 0 5 14 5
30 0 17 -3 30 -7 30 -4 0 -3 14 2 30 5 17 5 30 1 30 -4 0 -5 20 -1 45 4 25 3
48 -2 51 -4 3 -4 13 2 23 5 10 7 21 3 24 -3 4 -7 53 -9 109 -4 131 -17 314
-29 398 -9 60 -13 98 -16 138 -2 17 -6 32 -9 32 -3 0 -6 18 -7 40 -1 22 -5 52
-8 67 -3 15 -8 42 -11 58 -12 67 -34 167 -63 285 -24 96 -20 82 -60 215 -38
127 -59 192 -77 232 -8 17 -14 36 -14 41 0 9 -78 209 -100 257 -5 11 -31 67
-58 125 -26 58 -55 120 -63 138 -7 17 -18 32 -23 32 -4 0 -6 7 -2 15 3 8 2 15
-2 15 -5 0 -18 20 -29 44 -12 24 -48 89 -79 143 -32 54 -62 108 -68 120 -6 13
-14 23 -18 23 -5 0 -8 4 -8 9 0 9 -148 237 -171 265 -5 6 -38 50 -74 99 -70
95 -79 106 -113 142 -13 14 -20 25 -16 25 5 0 1 6 -7 13 -8 6 -44 46 -80 87
-35 41 -67 77 -71 78 -5 2 -8 10 -8 17 0 8 -9 17 -20 20 -11 3 -20 10 -20 15
0 9 -199 210 -313 316 -42 39 -77 70 -77 68 0 -3 -71 59 -102 89 -10 9 -18 15
-18 12 0 -3 -8 3 -18 13 -23 21 -44 38 -97 77 -22 16 -42 32 -45 35 -9 10
-173 125 -227 160 -29 18 -53 37 -53 42 0 4 -3 7 -7 6 -5 -2 -38 16 -75 40
-38 23 -71 42 -74 41 -4 0 -10 3 -13 8 -6 8 -32 24 -86 52 -16 9 -33 21 -37
26 -4 6 -8 6 -8 2 0 -5 -7 -1 -16 7 -8 9 -19 14 -24 11 -5 -3 -10 -1 -12 4 -2
7 -340 180 -351 180 -6 0 -64 24 -113 46 -30 14 -60 25 -67 25 -7 0 -17 4 -23
8 -5 4 -27 14 -49 21 -22 7 -50 17 -62 22 -49 20 -71 28 -163 57 -119 39 -236
73 -270 78 -14 3 -32 7 -40 11 -8 3 -23 7 -32 8 -10 2 -19 3 -20 5 -4 2 -38
10 -63 14 -11 2 -20 5 -20 6 0 1 -9 4 -20 6 -25 3 -71 12 -110 21 -16 4 -39 8
-50 9 -11 2 -33 5 -50 8 -16 3 -41 8 -55 10 -14 3 -25 5 -25 6 0 1 -22 3 -50
6 -27 3 -61 7 -75 10 -14 3 -41 7 -61 9 -20 1 -63 6 -95 9 -32 3 -86 9 -119
12 -64 6 -641 15 -647 9z"/>
</g>
</svg>
